<svg width="72" height="72" viewBox="0 0 72 72" fill="none" xmlns="http://www.w3.org/2000/svg">
<path d="M21.6562 0.140915C17.7609 0.619038 14.0625 1.9831 10.8984 4.09248C0.590625 10.9831 -2.925 24.3284 2.65781 35.4097C3.27656 36.6472 4.58438 38.644 5.54063 39.8112L6.17344 40.5987L5.65313 41.4987C4.85156 42.8909 2.99531 44.6628 1.54688 45.4081C0.239063 46.0972 0.0140625 46.294 0 46.8425C0 47.3628 0.435938 47.7425 1.43438 48.0659C4.96406 49.219 8.92969 48.6987 12.0094 46.6737L13.1063 45.9565L14.175 46.4628C15.5531 47.0956 17.0016 47.6019 18.7453 48.0237C20.25 48.3894 20.6156 48.3472 21.0094 47.7847C21.5859 46.955 21.0516 46.4065 19.2656 45.9847C17.6766 45.619 15.6656 44.8878 14.175 44.1425C13.5703 43.8331 12.9656 43.594 12.825 43.594C12.6844 43.594 12.15 43.9175 11.6578 44.3253C9.81563 45.8019 7.67813 46.5472 5.23125 46.5472H3.92344L5.13281 45.394C5.80781 44.7612 6.60938 43.8753 6.90469 43.4253C7.59375 42.4128 8.4375 40.6831 8.4375 40.2753C8.4375 40.1065 8.01562 39.4737 7.50938 38.869C2.78438 33.2019 1.08281 26.1565 2.74219 19.1534C5.18906 8.88779 14.7938 1.6456 25.3125 2.15185C30.7688 2.41904 35.7188 4.51435 39.6281 8.22685C42.7922 11.2362 44.9578 14.9628 45.9563 19.1253C46.1531 19.9409 46.3922 20.7003 46.5047 20.8409C46.8141 21.1925 47.3766 21.2769 47.7703 21.0237C48.375 20.6159 48.4031 20.2644 47.9531 18.4784C47.4188 16.3409 46.9828 15.2159 45.8859 13.0644C42.8906 7.18623 37.0125 2.46123 30.6563 0.84404C29.9953 0.675289 28.9547 0.450291 28.3359 0.337788C26.9578 0.0846634 23.0906 -0.0278358 21.6562 0.140915Z" fill="black"/>
<path d="M15.188 19.4062C14.8083 19.7859 14.8224 20.5453 15.2021 20.8969C15.4833 21.15 15.8771 21.1641 24.2864 21.2063L33.0614 21.2344L33.4974 20.8125C33.8349 20.4609 33.9052 20.3063 33.8208 19.9969C33.7786 19.7859 33.6239 19.5047 33.5114 19.3641C33.3005 19.1391 32.6817 19.125 24.3708 19.125C15.6521 19.125 15.4692 19.125 15.188 19.4062Z" fill="black"/>
<path d="M15.188 23.625C14.8083 24.0047 14.8224 24.7641 15.2021 25.1156C15.4833 25.3688 15.8771 25.3828 24.2864 25.425L33.0614 25.4531L33.4974 25.0312C33.8349 24.6797 33.9052 24.525 33.8208 24.2156C33.7786 24.0047 33.6239 23.7234 33.5114 23.5828C33.3005 23.3578 32.6817 23.3438 24.3708 23.3438C15.6521 23.3438 15.4692 23.3438 15.188 23.625Z" fill="black"/>
<path d="M44.0859 23.5687C38.8547 24.3702 34.1156 26.7749 30.4031 30.5155C26.9438 33.989 24.7219 38.1655 23.7375 43.0452C23.4563 44.4374 23.4141 45.0562 23.4141 47.7421C23.4281 51.2437 23.6109 52.4249 24.6094 55.4202C26.7891 61.9874 31.7953 67.3593 38.2641 70.1015C41.3438 71.4093 43.9453 71.9155 47.6016 71.9155C51.286 71.9155 53.5922 71.4796 56.8828 70.1437C57.6563 69.8343 58.4438 69.5108 58.6406 69.4265C58.95 69.314 59.1047 69.3562 59.6953 69.778C60.7078 70.5093 61.9735 71.0999 63.3797 71.5358C64.4906 71.8733 64.8422 71.9015 66.7266 71.9015C68.611 71.9015 68.9766 71.8733 70.1016 71.5218C70.9594 71.2687 71.4656 71.0296 71.6907 70.7905C72.2672 70.1437 72.0281 69.4546 71.086 69.0468C70.1578 68.653 69.075 67.9218 68.161 67.078C67.3031 66.2905 65.9531 64.378 65.9531 63.9421C65.9531 63.8015 66.2344 63.3515 66.5719 62.9577C68.7375 60.3983 70.65 56.4327 71.4235 52.8608C73.125 44.9155 70.8891 36.8577 65.3344 30.9796C61.4813 26.9155 56.6578 24.3843 51.1172 23.5546C49.3735 23.3015 45.8156 23.3015 44.0859 23.5687ZM52.1438 25.8608C64.6313 28.6312 72.2813 40.8233 69.1875 53.0858C68.3297 56.5171 66.8813 59.2452 64.1672 62.578C63.8297 62.9718 63.5625 63.4499 63.5625 63.6187C63.5625 64.0687 64.6875 66.2343 65.3906 67.1483C65.7281 67.5843 66.4313 68.3437 66.9656 68.8358C67.486 69.314 67.9219 69.764 67.9219 69.8202C67.9219 70.003 64.9547 69.778 64.0547 69.539C62.8172 69.2015 61.6078 68.5827 60.4547 67.7108C59.8922 67.2749 59.2875 66.9374 59.1047 66.9374C58.9219 66.9374 58.3172 67.1624 57.7688 67.4437C49.4438 71.6343 39.5719 70.2983 32.6672 64.0546C29.25 60.9608 26.9156 56.8405 25.8469 52.0733C25.5797 50.8921 25.5375 50.2593 25.5375 47.6718C25.5375 45.0702 25.5797 44.4515 25.8469 43.228C26.7609 39.0233 28.7016 35.339 31.5703 32.3577C34.8609 28.9405 38.7703 26.7608 43.1859 25.889C45.3094 25.4671 45.2531 25.4671 48.1641 25.5233C50.2031 25.5655 51.1453 25.6358 52.1438 25.8608Z" fill="black"/>
<path d="M38.5024 42.75C38.1649 43.1016 38.0946 43.2563 38.179 43.5656C38.2212 43.7766 38.3759 44.0578 38.4884 44.1844C38.6993 44.4234 39.3181 44.4375 47.629 44.4375C56.3478 44.4375 56.5306 44.4375 56.8118 44.1562C57.1915 43.7766 57.1774 43.0172 56.7978 42.6656C56.5165 42.4125 56.1228 42.3984 47.7134 42.3563L38.9384 42.3281L38.5024 42.75Z" fill="black"/>
<path d="M38.5024 46.9688C38.1649 47.3203 38.0946 47.475 38.179 47.7844C38.2212 47.9953 38.3759 48.2766 38.4884 48.4031C38.6993 48.6422 39.3181 48.6562 47.629 48.6562C56.3478 48.6562 56.5306 48.6562 56.8118 48.375C57.1915 47.9953 57.1774 47.2359 56.7978 46.8844C56.5165 46.6313 56.1228 46.6172 47.7134 46.575L38.9384 46.5469L38.5024 46.9688Z" fill="black"/>
<path d="M38.5024 51.1875C38.1649 51.5391 38.0946 51.6938 38.179 52.0031C38.2212 52.2141 38.3759 52.4953 38.4884 52.6219C38.6993 52.8609 39.3181 52.875 47.629 52.875C56.3478 52.875 56.5306 52.875 56.8118 52.5938C57.1915 52.2141 57.1774 51.4547 56.7978 51.1031C56.5165 50.85 56.1228 50.8359 47.7134 50.7938L38.9384 50.7656L38.5024 51.1875Z" fill="black"/>
<path d="M15.188 27.8438C14.8083 28.2234 14.8224 28.9828 15.2021 29.3344C15.4833 29.5875 15.8067 29.6016 21.8677 29.6016C27.9286 29.6016 28.2521 29.5875 28.5333 29.3344C28.913 28.9828 28.9271 28.2234 28.5474 27.8438C28.2802 27.5766 28.0833 27.5625 21.8677 27.5625C15.6521 27.5625 15.4552 27.5766 15.188 27.8438Z" fill="black"/>
</svg>
