<svg width="74" height="82" viewBox="0 0 74 82" fill="none" xmlns="http://www.w3.org/2000/svg">
<path d="M26.0152 3.94976C22.6621 4.90178 19.8727 7.42464 18.4129 10.836C17.6469 12.629 17.3145 14.2157 17.3145 16.1515C17.3145 18.0079 17.5312 19.3725 18.0805 20.8799C18.9621 23.3234 19.3234 23.7677 28.1543 33.4783C35.9879 42.0941 36.5227 42.6494 36.9996 42.6494C37.4621 42.6494 37.9969 42.0941 45.5703 33.7956C50.0074 28.9403 53.9531 24.4975 54.3578 23.9263C56.4824 20.8323 57.2051 16.929 56.3668 13.0574C56.0777 11.7563 55.0227 9.48735 54.1699 8.31319C51.973 5.31432 48.7355 3.61655 45.2523 3.61655C42.2605 3.63242 39.7168 4.63204 37.7078 6.59955L36.9996 7.2977L36.2914 6.59955C34.9617 5.29846 33.0828 4.28297 31.2473 3.85456C29.8309 3.52135 27.3449 3.56895 26.0152 3.94976ZM31.0594 6.39328C32.4758 6.77409 34.0656 7.75784 35.3809 9.10654C36.9129 10.6615 37.0863 10.6615 38.5172 9.20174C40.5406 7.13903 42.2605 6.31394 44.732 6.20288C46.582 6.10767 47.7672 6.36155 49.198 7.12316C53.2016 9.26521 55.2394 14.2157 54.0543 18.9441C53.4328 21.4828 53.4473 21.4669 44.8621 30.9078L36.9996 39.5553L29.1371 30.9078C23.2258 24.4023 21.1734 22.0382 20.8266 21.3559C18.225 16.2467 19.9016 9.94749 24.5844 7.26597C25.1914 6.91689 26.073 6.53608 26.55 6.40915C27.6629 6.10767 29.9176 6.10767 31.0594 6.39328Z" fill="black"/>
<path d="M33.8926 12.5817C33.5457 12.9466 33.5313 13.0418 33.5313 15.1204V17.2624H31.5801C29.6867 17.2624 29.6 17.2783 29.2676 17.6591C28.9062 18.0399 28.9062 18.0717 28.9062 21.0705C28.9062 24.0694 28.9062 24.1011 29.2676 24.4819C29.6 24.8627 29.6867 24.8786 31.5801 24.8786H33.5313V27.0207C33.5313 29.0992 33.5457 29.1944 33.8926 29.5594C34.2395 29.9561 34.2684 29.9561 37 29.9561C39.7316 29.9561 39.7605 29.9561 40.1074 29.5594C40.4543 29.1944 40.4688 29.0992 40.4688 27.0207V24.8786H42.4199C44.3133 24.8786 44.4 24.8627 44.7324 24.4819C45.0938 24.1011 45.0938 24.0694 45.0938 21.0705C45.0938 18.0717 45.0938 18.0399 44.7324 17.6591C44.4 17.2783 44.3133 17.2624 42.4199 17.2624H40.4688V15.1204C40.4688 13.0418 40.4543 12.9466 40.1074 12.5817C39.7605 12.185 39.7316 12.185 37 12.185C34.2684 12.185 34.2395 12.185 33.8926 12.5817ZM38.1563 16.8658C38.1563 18.9443 38.1707 19.0395 38.5176 19.4045C38.85 19.7853 38.9367 19.8012 40.8301 19.8012H42.7813V21.0705V22.3399H40.8301C38.9367 22.3399 38.85 22.3558 38.5176 22.7366C38.1707 23.1015 38.1563 23.1967 38.1563 25.2753V27.4173H37H35.8438V25.2753C35.8438 23.1967 35.8293 23.1015 35.4824 22.7366C35.15 22.3558 35.0633 22.3399 33.1699 22.3399H31.2188V21.0705V19.8012H33.1699C35.0633 19.8012 35.15 19.7853 35.4824 19.4045C35.8293 19.0395 35.8438 18.9443 35.8438 16.8658V14.7237H37H38.1563V16.8658Z" fill="black"/>
<path d="M8.07896 18.5792C6.24341 19.3408 5.11607 20.9434 4.95708 23.0378C4.88482 23.9581 4.84146 24.0374 4.17661 24.688C3.25161 25.5924 2.7313 26.7983 2.64458 28.1787C2.58677 29.1625 2.78911 30.051 5.27505 40.1742C7.15396 47.8697 8.07896 51.3604 8.35356 51.9158C8.67153 52.5346 9.82778 53.7564 13.2821 57.1678C16.3317 60.1508 17.9071 61.8168 18.1094 62.2452C18.3551 62.7688 18.4274 63.229 18.4707 64.8157C18.5286 66.5452 18.4997 66.7673 18.2973 66.7673C18.1672 66.7673 17.8926 66.9419 17.7047 67.164L17.3434 67.5448V73.1141V78.6835L17.7047 79.0643L18.0516 79.4609H26.5934H35.1352L35.4821 79.0643L35.8434 78.6835V73.1141V67.5448L35.4821 67.164C35.2942 66.9419 35.034 66.7673 34.9184 66.7673C34.7305 66.7673 34.7016 65.8153 34.6582 59.7382C34.6004 52.9154 34.6004 52.6933 34.268 51.6143C33.5743 49.2819 32.259 47.1716 30.7125 45.8546C30.0622 45.2992 20.3063 38.9366 19.468 38.5082C19.1645 38.3654 18.8032 37.3181 16.5629 30.2256C15.161 25.7511 13.8747 21.7526 13.7012 21.3242C12.9786 19.6105 11.4754 18.5157 9.68325 18.4205C9.00396 18.3888 8.39692 18.4522 8.07896 18.5792ZM10.5504 21.229C10.854 21.4035 11.2297 21.7367 11.3887 21.9747C11.5333 22.2286 12.704 25.7352 13.9758 29.7972C15.2622 33.8591 16.3461 37.2864 16.404 37.4451C16.4762 37.6513 16.3461 37.7465 15.7391 37.9528C15.32 38.0798 14.9586 38.175 14.9442 38.1591C14.9297 38.1432 14.1493 35.5569 13.2243 32.4311C12.2993 29.3053 11.4321 26.481 11.2731 26.1636C10.6805 24.8943 9.14849 23.6884 7.86216 23.498C7.21177 23.4028 7.19731 23.3869 7.28403 22.9109C7.47192 21.8637 8.48364 20.9116 9.4231 20.9116C9.72661 20.9116 10.2325 21.0544 10.5504 21.229ZM8.23794 26.3064C8.54146 26.481 8.91724 26.8142 9.07622 27.0522C9.22075 27.306 10.1891 30.3366 11.2008 33.7957L13.0508 40.0949L12.7184 40.9199C12.4438 41.634 12.4004 41.9672 12.4583 43.0461C12.5305 44.5376 13.0075 45.6801 13.8891 46.521C14.6696 47.2509 21.5493 51.535 21.9395 51.535C22.1274 51.535 22.4309 51.3604 22.6188 51.1383C23.0813 50.6464 23.0957 49.9007 22.6622 49.4247C22.4743 49.2343 20.87 48.1394 19.0778 47.0288C17.2856 45.9022 15.6668 44.8232 15.4934 44.6487C14.9153 44.0934 14.6985 43.4745 14.7708 42.5701C14.8864 41.0786 15.8547 40.1583 17.1844 40.3011C17.7336 40.3646 18.8321 40.9993 23.4137 43.9347C29.6575 47.9332 30.3801 48.5361 31.3918 50.6782C32.3313 52.6298 32.3747 53.0582 32.3747 60.2936V66.7673H26.6079H20.8411L20.7832 64.657C20.6965 62.1976 20.4508 61.2932 19.4825 59.9921C19.1356 59.532 17.329 57.6914 15.4645 55.8825C11.0563 51.6302 10.5649 51.1066 10.2614 50.345C10.1168 49.9959 8.84497 44.9978 7.44302 39.238C4.72583 28.147 4.71138 28.0201 5.31841 27.1156C6.05552 26.0208 7.16841 25.7035 8.23794 26.3064ZM33.5309 73.1141V76.9222H26.5934H19.6559V73.1141V69.306H26.5934H33.5309V73.1141Z" fill="black"/>
<path d="M63.0156 18.6268C62.1484 18.9759 61.2379 19.7216 60.7609 20.4515C60.3274 21.1496 60.0527 21.943 57.0899 31.3045L54.8785 38.286L51.034 40.7454C45.0504 44.5535 43.8508 45.3627 43.0559 46.0767C41.5672 47.4096 40.4109 49.3295 39.7316 51.6143C39.3992 52.6933 39.3992 52.8996 39.3414 59.7382C39.298 65.8312 39.2691 66.7673 39.0813 66.7673C38.9656 66.7673 38.7055 66.9419 38.5176 67.164L38.1562 67.5448V73.1141V78.6835L38.5176 79.0643L38.8645 79.4609H47.4063H55.9481L56.2949 79.0643L56.6563 78.6835V73.1141V67.5448L56.2949 67.164C56.107 66.9419 55.8324 66.7673 55.7023 66.7673C55.5 66.7673 55.4711 66.5452 55.5289 64.8157C55.5723 63.2131 55.6301 62.7688 55.8902 62.2294C56.107 61.7851 57.5668 60.246 60.602 57.2788C64.9379 53.0424 65.3281 52.6139 65.8195 51.5667C65.9641 51.2652 67.2504 46.2354 68.6813 40.3805C71.0227 30.892 71.3117 29.575 71.3117 28.4485C71.3262 27.3695 71.2684 27.0522 70.9215 26.2747C70.6902 25.7511 70.2133 25.0688 69.8231 24.688C69.1582 24.0374 69.1149 23.9581 69.0426 23.0061C68.8981 21.1973 67.9586 19.6899 66.4555 18.8331C65.6316 18.3571 63.9262 18.2619 63.0156 18.6268ZM65.6172 21.2607C66.2242 21.7209 66.6 22.2921 66.7156 22.9109C66.8024 23.3869 66.7879 23.4028 66.1375 23.498C64.7934 23.7042 63.3336 24.8308 62.741 26.1319C62.582 26.4651 61.7004 29.3053 60.7754 32.4311C59.8504 35.5569 59.0699 38.1432 59.0555 38.1591C59.041 38.175 58.6797 38.0798 58.2606 37.9528C57.6535 37.7465 57.5234 37.6513 57.5957 37.4451C57.6535 37.2864 58.7375 33.8909 59.9949 29.8765C61.2668 25.8622 62.4231 22.3714 62.5676 22.1017C63.1457 21.0068 64.7066 20.5784 65.6172 21.2607ZM67.9297 26.3382C68.5945 26.8459 68.9559 27.4171 69.0426 28.147C69.1004 28.623 68.5367 31.0983 66.6289 38.9207C65.2703 44.5059 64.0563 49.4247 63.9262 49.8531C63.6227 50.9003 63.218 51.3446 58.6363 55.8032C56.3383 58.0405 54.5027 59.9445 54.2281 60.3888C53.4621 61.6264 53.1875 62.8482 53.1875 64.9585V66.7673H47.4063H41.625V60.2936C41.625 53.0582 41.6684 52.6298 42.5934 50.6782C43.5906 48.5679 44.3422 47.9332 50.6004 43.9347C56.6563 40.0473 56.902 39.9362 58.0149 40.5074C59.4313 41.2532 59.6914 43.4904 58.5063 44.6487C58.3328 44.8232 56.7141 45.9022 54.9219 47.0288C53.1297 48.1553 51.5254 49.2343 51.352 49.4247C50.9039 49.9007 50.9184 50.6464 51.3809 51.1383C51.5688 51.3605 51.8723 51.535 52.0602 51.535C52.5949 51.535 59.5035 47.124 60.284 46.283C61.2234 45.2675 61.6137 44.0775 61.527 42.4908C61.4981 41.7926 61.3535 41.0469 61.209 40.6978L60.9344 40.1107L62.7266 34.0337C63.6949 30.7016 64.6344 27.6869 64.8078 27.3378C65.4004 26.1002 66.9469 25.6083 67.9297 26.3382ZM54.3438 73.1141V76.9222H47.4063H40.4688V73.1141V69.306H47.4063H54.3438V73.1141Z" fill="black"/>
</svg>
