<svg width="40" height="33" viewBox="0 0 40 33" fill="none" xmlns="http://www.w3.org/2000/svg">
<path d="M30.8672 1.12181C31.75 1.4054 33.1094 2.3722 34.7109 3.86751C36.3203 5.36283 37.9141 7.1804 38.4922 8.17943L38.7812 8.66282L38.6875 9.3138C37.9687 14.4378 32.7969 21.1345 25.8594 25.9169C20.9609 29.2878 15.6797 31.4728 11.3281 31.9111C10.6094 31.9884 10.5703 31.982 10.1172 31.8337C8.27343 31.2085 3.91406 28.321 2.26562 26.6259C1.25 25.5818 1.07812 25.0468 1.5 24.2863C1.82812 23.7062 2.25 23.3968 4.10156 22.372C6.21093 21.2054 7.60156 20.5222 9.05468 19.9163C11.3594 18.9689 12.1875 18.9109 13.2656 19.6392C13.4531 19.7617 14.0469 20.2902 14.5859 20.8122C15.125 21.3279 15.6094 21.7597 15.6641 21.7726C15.8281 21.8048 17.1719 21.3536 18.1094 20.9411C21.2734 19.5747 23.7344 17.5445 25.3828 14.9535C25.8828 14.1671 26.4297 13.0585 26.3906 12.9232C26.375 12.8781 25.8516 12.4785 25.2266 12.0337C23.5625 10.8607 23.2109 10.4482 23.2031 9.71341C23.2031 8.74017 24.5078 6.61966 27.0781 3.44212C27.7578 2.60423 28.4297 1.83724 28.6328 1.68255C29.3047 1.17337 30.2656 0.92845 30.8672 1.12181ZM29.7031 3.8804C28.4531 5.33704 27.0547 7.27064 26.1562 8.79818C25.9062 9.22357 25.7031 9.59095 25.7031 9.61673C25.7031 9.63607 26.1328 9.95833 26.6562 10.3257C27.875 11.1701 28.6797 11.8017 28.9531 12.1304L29.1641 12.3818L29.0234 12.8781C28.5156 14.6634 27.1016 16.9386 25.4687 18.6015C22.9219 21.1796 19.2734 23.1777 15.7656 23.9189C15.4141 23.9898 15.0547 24.0349 14.9609 24.0156C14.6797 23.9576 13.7969 23.2421 12.7266 22.198C12.1719 21.6501 11.6953 21.2054 11.6719 21.2054C11.6484 21.2054 11.1953 21.373 10.6719 21.5792C8.86718 22.2947 6.5 23.4548 4.72656 24.4925L3.82812 25.021L4.46093 25.5947C5.07031 26.1425 6.5625 27.2833 7.54687 27.9601C8.24218 28.437 9.89062 29.4296 10.4062 29.6874L10.8516 29.913L11.3828 29.8357C16.2109 29.1718 22.0781 26.3294 26.9922 22.2689C30.5156 19.3556 33.4297 15.8945 34.9375 12.8265C35.5 11.6857 35.9687 10.3644 36.1641 9.39115L36.2578 8.95286L35.9844 8.58548C35.0312 7.28997 32.6016 4.88587 31.0547 3.69994C30.6719 3.40345 30.3437 3.16497 30.3359 3.15853C30.3281 3.15853 30.0469 3.48724 29.7031 3.8804Z" fill="black"/>
</svg>
